<svg width="32" height="32" fill="none" xmlns="http://www.w3.org/2000/svg"><g clip-path="url(#a)"><path d="M0 16C0 7.163 7.163 0 16 0s16 7.163 16 16-7.163 16-16 16S0 24.837 0 16z" fill="#333"/><path fill-rule="evenodd" clip-rule="evenodd" d="M15.676 0c-.075 6.583-.506 10.266-2.958 12.718S6.583 15.601 0 15.676v.955c6.583.076 10.266.506 12.718 2.958 2.414 2.414 2.869 6.02 2.954 12.411h.963c.086-6.39.54-9.997 2.954-12.41 2.414-2.414 6.02-2.869 12.411-2.955v-.963c-6.39-.085-9.997-.54-12.41-2.954C17.136 10.266 16.706 6.583 16.63 0h-.955z" fill="#fff"/></g><defs><clipPath id="a"><path fill="#fff" d="M0 0h32v32H0z"/></clipPath></defs></svg>