<svg width="100" height="50" fill="none" xmlns="http://www.w3.org/2000/svg"><path d="M83.23 23.751c3.037-4.488 3.9-8.367 2.509-9.758-.437-.427-1.097-.65-1.96-.65-1.899 0-4.701 1.066-7.798 3.158 1.29.995 2.579 2.122 3.848 3.391a38.705 38.705 0 0 1 3.392 3.849l.01.01zM69.646 19.902a38.695 38.695 0 0 1 3.849-3.392c-3.098-2.091-5.9-3.158-7.8-3.158-.852 0-1.522.214-1.959.65-1.391 1.392-.528 5.26 2.508 9.759a41.507 41.507 0 0 1 3.392-3.849l.01-.01zM82.335 25a37.757 37.757 0 0 0-3.533-4.062 37.766 37.766 0 0 0-4.062-3.534 37.767 37.767 0 0 0-4.062 3.534A37.78 37.78 0 0 0 67.144 25a37.789 37.789 0 0 0 3.534 4.061 37.767 37.767 0 0 0 4.062 3.534 37.766 37.766 0 0 0 4.062-3.534A37.766 37.766 0 0 0 82.335 25zM66.256 26.249c-3.036 4.488-3.9 8.367-2.508 9.758 1.391 1.392 5.26.528 9.758-2.518a41.492 41.492 0 0 1-3.848-3.391 38.707 38.707 0 0 1-3.392-3.849h-.01z" fill="#fff"/><path d="M52.027 0H12.242C5.337 0-.258 5.595-.258 12.5v25c0 6.905 5.595 12.5 12.5 12.5h75c6.905 0 12.5-5.595 12.5-12.5V0H52.027zm-2.285 48.538h-37.5c-6.082 0-11.038-4.955-11.038-11.038v-25c0-6.082 4.956-11.038 11.038-11.038h37.5v47.076zm37.033-11.505c-.72.72-1.757 1.066-2.985 1.066-2.427 0-5.666-1.33-9.048-3.706-3.381 2.376-6.62 3.706-9.047 3.706-1.24 0-2.265-.345-2.986-1.066-2.142-2.143-.954-6.925 2.63-12.033-3.584-5.108-4.772-9.89-2.63-12.033 2.143-2.143 6.926-.954 12.033 2.63 5.108-3.584 9.89-4.772 12.033-2.63 2.143 2.143.955 6.925-2.63 12.033 3.585 5.108 4.773 9.89 2.63 12.033z" fill="#fff"/><path d="M79.84 30.098a38.707 38.707 0 0 1-3.848 3.391c4.488 3.036 8.367 3.9 9.758 2.518 1.392-1.39.528-5.26-2.508-9.758a41.477 41.477 0 0 1-3.391 3.849h-.01zM10.293 15.211c-1.34 1.676-1.94 3.96-1.524 5.819 1.077 4.813 5.545 5.585 8.825 6.011 2.589.335 5.067.812 5.006 3.117-.071 2.397-2.773 2.986-4.55 2.986-4.62 0-4.772-3.412-4.772-3.412H8.312c.072 1.28.457 3.34 2.042 5.108 1.726 1.94 4.325 2.914 7.707 2.914 2.6 0 4.965-.843 6.65-2.346v2.062h4.631v-5.9l1.635-1.797 4.681 7.697h5.392l-6.813-11.262 6.813-7.463H35.05L29.342 25V12.5h-4.63v3.026a12.343 12.343 0 0 0-.488-.579c-1.685-1.787-4.112-2.69-7.22-2.69-3.584 0-5.625 1.604-6.711 2.954zm6.793 1.381c2.082 0 4.163.467 4.955 3.361h2.66v4.428c-3.32-2.732-10.53-1.016-11.301-4.418-.406-1.787 1.37-3.37 3.686-3.37z" fill="#fff"/></svg>