<svg width="32" height="32" fill="none" xmlns="http://www.w3.org/2000/svg"><g clip-path="url(#a)"><rect width="32" height="32" rx="16" fill="#EFF5FB"/><g clip-path="url(#b)"><path d="m8.283 15.77 3.686 1.394 1.427 4.65c.092.299.451.409.69.21l2.055-1.697a.607.607 0 0 1 .747-.021l3.707 2.727a.433.433 0 0 0 .68-.266L23.991 9.53a.437.437 0 0 0-.582-.5l-15.13 5.914a.443.443 0 0 0 .004.824zm4.883.652 7.206-4.498c.13-.08.262.097.151.202l-5.946 5.601a1.255 1.255 0 0 0-.382.748l-.203 1.521c-.027.203-.308.223-.364.027l-.779-2.774a.74.74 0 0 1 .317-.827z" fill="#333"/></g></g><defs><clipPath id="a"><path fill="#fff" d="M0 0h32v32H0z"/></clipPath><clipPath id="b"><path fill="#fff" transform="translate(8 9)" d="M0 0h16v14H0z"/></clipPath></defs></svg>