<svg width="32" height="32" fill="none" xmlns="http://www.w3.org/2000/svg"><g clip-path="url(#a)"><rect width="32" height="32" rx="16" fill="#EFF5FB"/><g clip-path="url(#b)"><path d="M24.47 10.713a6.987 6.987 0 0 1-2.002.549 3.497 3.497 0 0 0 1.534-1.929 6.966 6.966 0 0 1-2.213.846 3.485 3.485 0 0 0-5.939 3.178 9.894 9.894 0 0 1-7.183-3.641 3.485 3.485 0 0 0 1.078 4.653 3.473 3.473 0 0 1-1.578-.436v.044a3.488 3.488 0 0 0 2.796 3.417c-.514.14-1.053.16-1.575.06a3.487 3.487 0 0 0 3.255 2.42 6.994 6.994 0 0 1-5.159 1.444 9.858 9.858 0 0 0 5.342 1.567c6.41 0 9.917-5.31 9.917-9.917 0-.15-.005-.301-.011-.45a7.08 7.08 0 0 0 1.739-1.804z" fill="#333"/></g></g><defs><clipPath id="a"><path fill="#fff" d="M0 0h32v32H0z"/></clipPath><clipPath id="b"><path fill="#fff" transform="translate(7 7)" d="M0 0h18v18H0z"/></clipPath></defs></svg>