<svg width="32" height="32" fill="none" xmlns="http://www.w3.org/2000/svg"><g clip-path="url(#a)"><rect width="32" height="32" rx="16" fill="#EFF5FB"/><g clip-path="url(#b)"><path d="M25.822 20.541c-.054-.093-.386-.841-1.987-2.38-1.675-1.61-1.45-1.349.568-4.133 1.229-1.696 1.72-2.732 1.566-3.175-.146-.422-1.05-.31-1.05-.31l-3.005.018s-.223-.031-.389.07c-.161.102-.265.335-.265.335s-.476 1.313-1.111 2.429c-1.339 2.355-1.875 2.479-2.094 2.333-.509-.34-.381-1.37-.381-2.1 0-2.283.333-3.234-.652-3.48-.327-.082-.567-.136-1.403-.145-1.073-.012-1.982.004-2.496.264-.342.173-.606.56-.445.582.199.028.65.126.888.463.309.433.297 1.41.297 1.41s.178 2.686-.413 3.02c-.407.229-.963-.238-2.157-2.376-.611-1.094-1.074-2.304-1.074-2.304s-.088-.226-.247-.346a1.222 1.222 0 0 0-.463-.193l-2.857.018s-.43.013-.587.206c-.14.172-.011.527-.011.527s2.238 5.42 4.77 8.154c2.324 2.505 4.962 2.34 4.962 2.34h1.195s.361-.041.545-.247c.17-.189.164-.544.164-.544s-.024-1.66.721-1.905c.734-.241 1.677 1.605 2.675 2.316.755.537 1.33.42 1.33.42l2.67-.04s1.398-.089.736-1.227z" fill="#333"/></g></g><defs><clipPath id="a"><path fill="#fff" d="M0 0h32v32H0z"/></clipPath><clipPath id="b"><path fill="#fff" transform="translate(6 10)" d="M0 0h20v12H0z"/></clipPath></defs></svg>